<svg xmlns="http://www.w3.org/2000/svg" viewBox="0 0 1226 117.9"><defs><style>.cls-1{fill:none;stroke:#e0d380;stroke-miterlimit:10;stroke-width:2px;}</style></defs><title>Asset 3</title><g id="Layer_2" data-name="Layer 2"><g id="Layer_1-2" data-name="Layer 1"><path class="cls-1" d="M1225,1V116.86a32.65,32.65,0,0,1-12.61-3c-6.89-3.23-11.44-8.8-11.44-15.12,0,10-11.38,18.11-25.43,18.11-.51,0-1,0-1.53,0-13.33-.56-23.89-8.44-23.89-18.07,0,10-11.38,18.11-25.43,18.11s-25.41-8.11-25.41-18.11c0,10-11.39,18.11-25.43,18.11h-.63c-14,0-25.43-8.11-25.43-18.11,0,10-11.38,18.11-25.42,18.11s-25.43-8.11-25.43-18.11c0,10-11.38,18.11-25.42,18.11s-25.42-8.11-25.42-18.11c0,10-11.39,18.11-25.42,18.11H920c-14,0-25.42-8.11-25.42-18.11,0,10-11.38,18.11-25.43,18.11s-25.42-8.11-25.42-18.11c0,10-11.38,18.11-25.43,18.11s-25.41-8.11-25.41-18.11c0,10-11.39,18.11-25.43,18.11h-.63c-14.05,0-25.43-8.11-25.43-18.11,0,10-11.38,18.11-25.42,18.11s-25.43-8.11-25.43-18.11c0,10-11.38,18.11-25.42,18.11s-25.42-8.11-25.42-18.11c0,10-11.39,18.11-25.42,18.11h-.63c-14,0-25.42-8.11-25.42-18.11,0,10-11.38,18.11-25.43,18.11s-25.42-8.11-25.42-18.11c0,10-11.39,18.11-25.43,18.11s-25.41-8.11-25.41-18.11c0,10-11.4,18.11-25.43,18.11h-.63c-14,0-25.43-8.11-25.43-18.11,0,10-11.38,18.11-25.42,18.11s-25.43-8.11-25.43-18.11c0,10-11.38,18.11-25.42,18.11s-25.42-8.11-25.42-18.11c0,10-11.39,18.11-25.43,18.11h-.62c-14,0-25.58-8.11-25.42-18.11-.17,11-11.39,18.11-25.43,18.11s-25.42-8.11-25.42-18.11c0,10-11.39,18.11-25.43,18.11s-25.42-8.11-25.42-18.11c0,10-11.39,18.11-25.42,18.11h-.63c-14.05,0-25.43-8.11-25.43-18.11,0,10-11.38,18.11-25.43,18.11S77.9,108.78,77.9,98.78c0,10-11.38,18.11-25.43,18.11s-25.41-8.11-25.41-18.11c0,10-11.39,18.11-25.43,18.11H1V1Z"/></g></g></svg>