<svg xmlns="http://www.w3.org/2000/svg" viewBox="0 0 1224 164.4"><defs><style>.cls-1{fill:#e0d380;}</style></defs><title>Asset 1</title><g id="Layer_2" data-name="Layer 2"><g id="Layer_1-2" data-name="Layer 1"><path class="cls-1" d="M1224,0V164.36a25,25,0,0,1-12.61-4.2A25.7,25.7,0,0,1,1200,138.71a25.56,25.56,0,0,1-25.43,25.69c-.51,0-1,0-1.53-.05a25.56,25.56,0,0,1-23.89-25.64,25.42,25.42,0,1,1-50.84,0,25.56,25.56,0,0,1-25.43,25.69h-.63a25.56,25.56,0,0,1-25.43-25.69,25.43,25.43,0,1,1-50.85,0,25.42,25.42,0,1,1-50.84,0,25.56,25.56,0,0,1-25.42,25.69H919a25.55,25.55,0,0,1-25.42-25.69,25.43,25.43,0,1,1-50.85,0,25.42,25.42,0,1,1-50.84,0,25.56,25.56,0,0,1-25.43,25.69h-.63a25.56,25.56,0,0,1-25.43-25.69,25.43,25.43,0,1,1-50.85,0,25.42,25.42,0,1,1-50.84,0,25.56,25.56,0,0,1-25.42,25.69h-.63a25.55,25.55,0,0,1-25.42-25.69,25.43,25.43,0,1,1-50.85,0,25.42,25.42,0,1,1-50.84,0,25.57,25.57,0,0,1-25.43,25.69h-.63a25.56,25.56,0,0,1-25.43-25.69,25.43,25.43,0,1,1-50.85,0,25.42,25.42,0,1,1-50.84,0A25.56,25.56,0,0,1,307,164.4h-.62a25.55,25.55,0,0,1-25.42-25.69,25.43,25.43,0,1,1-50.85,0,25.43,25.43,0,1,1-50.85,0,25.56,25.56,0,0,1-25.42,25.69h-.63a25.56,25.56,0,0,1-25.43-25.69,25.43,25.43,0,1,1-50.85,0,25.42,25.42,0,1,1-50.84,0A25.56,25.56,0,0,1,.63,164.4H0V0Z"/></g></g></svg>